<?xml version="1.0" encoding="UTF-8" ?>
<!DOCTYPE svg PUBLIC "-//W3C//DTD SVG 1.1//EN" "http://www.w3.org/Graphics/SVG/1.1/DTD/svg11.dtd">
<svg width="292pt" height="363pt" viewBox="0 0 292 363" version="1.1" xmlns="http://www.w3.org/2000/svg">
<g id="#fefefeff">
</g>
<g id="#0c0a0aff">
<path fill="#0c0a0a" opacity="1.00" d=" M 91.96 17.94 C 106.67 13.62 122.73 13.92 137.27 18.78 C 152.04 23.84 165.36 33.55 174.10 46.55 C 184.97 44.87 196.14 43.83 207.04 45.96 C 231.16 49.95 252.98 65.56 264.61 87.05 C 255.85 92.05 246.60 96.14 237.65 100.79 C 230.42 90.93 221.15 82.40 210.13 76.96 C 202.73 73.33 194.29 72.48 186.17 73.38 C 189.00 88.43 187.89 104.33 181.76 118.46 C 176.64 130.52 168.13 140.95 157.81 148.95 C 180.50 149.12 203.19 148.88 225.87 149.07 C 226.06 159.87 226.02 170.67 225.92 181.47 C 196.38 181.50 166.85 181.54 137.31 181.45 C 136.90 194.90 136.65 208.74 131.70 221.45 C 127.30 232.70 121.94 243.75 114.13 253.06 C 108.33 259.95 102.81 267.21 95.71 272.84 C 89.76 263.88 84.98 254.16 79.48 244.90 C 82.95 242.22 86.87 240.11 89.95 236.93 C 101.11 225.84 106.41 210.18 108.23 194.84 C 109.16 184.45 108.91 173.99 109.53 163.58 C 93.59 162.60 77.89 156.73 65.67 146.36 C 49.36 132.91 39.29 112.18 39.00 91.02 C 38.62 77.35 42.09 63.61 49.01 51.81 C 58.34 35.62 74.06 23.27 91.96 17.94 M 81.99 53.00 C 71.65 61.88 65.28 75.34 65.41 89.01 C 65.26 99.15 68.61 109.25 74.58 117.42 C 82.80 128.77 96.24 136.37 110.29 136.98 C 110.79 126.58 110.36 116.00 113.24 105.88 C 118.25 86.01 131.17 68.42 148.33 57.30 L 149.40 57.55 C 143.08 50.67 134.96 45.36 125.89 42.97 C 110.80 38.66 93.73 42.62 81.99 53.00 M 140.09 129.12 C 154.46 119.28 162.95 101.62 161.10 84.23 C 147.37 94.61 138.96 111.85 140.09 129.12 Z" />
<path fill="#0c0a0a" opacity="1.00" d=" M 4.77 317.03 C 4.40 308.50 12.68 301.17 21.06 301.99 C 26.22 302.09 30.62 305.34 33.68 309.26 C 31.92 310.35 30.13 311.39 28.30 312.35 C 26.64 310.48 24.69 308.67 22.13 308.24 C 16.78 306.83 10.99 311.30 10.66 316.74 C 10.29 321.79 10.65 326.87 10.50 331.93 C 16.52 332.05 22.54 331.87 28.55 332.08 C 28.53 333.80 28.51 335.53 28.50 337.26 C 22.50 337.23 16.51 337.25 10.51 337.26 C 10.55 343.27 10.50 349.29 10.53 355.30 C 8.59 355.29 6.64 355.29 4.70 355.30 C 4.77 342.54 4.68 329.79 4.77 317.03 Z" />
<path fill="#0c0a0a" opacity="1.00" d=" M 175.56 302.65 C 179.05 300.90 183.59 303.88 182.72 307.86 C 182.33 312.05 176.10 313.34 173.94 309.84 C 172.19 307.51 173.16 304.11 175.56 302.65 Z" />
<path fill="#0c0a0a" opacity="1.00" d=" M 253.40 303.44 C 262.41 299.19 274.37 305.85 274.96 315.91 C 275.09 329.11 274.99 342.32 275.04 355.53 C 273.03 355.52 271.02 355.53 269.02 355.54 C 268.89 347.14 268.98 338.74 268.98 330.34 C 262.27 335.26 251.74 334.00 246.93 327.03 C 241.01 319.46 244.32 306.84 253.40 303.44 M 257.40 308.51 C 250.08 309.79 247.42 320.22 253.21 324.84 C 257.99 329.60 266.91 326.94 268.65 320.52 C 270.97 313.91 264.16 306.59 257.40 308.51 Z" />
<path fill="#0c0a0a" opacity="1.00" d=" M 42.14 320.20 C 47.14 315.02 55.85 314.25 61.78 318.25 C 63.72 319.52 65.16 321.36 66.65 323.11 C 64.88 324.19 63.05 325.17 61.18 326.09 C 59.61 324.10 57.57 322.38 55.00 321.95 C 49.48 320.64 43.67 325.42 43.60 331.03 C 43.36 339.18 43.60 347.35 43.51 355.51 C 41.50 355.51 39.49 355.51 37.49 355.53 C 37.50 347.66 37.47 339.80 37.50 331.93 C 37.49 327.62 38.95 323.20 42.14 320.20 Z" />
<path fill="#0c0a0a" opacity="1.00" d=" M 109.26 330.04 C 109.44 322.04 117.07 315.26 125.01 315.70 C 129.82 315.61 134.29 318.11 137.30 321.76 C 142.19 315.36 152.00 313.68 158.62 318.31 C 162.82 321.14 165.39 326.06 165.48 331.10 C 165.56 339.24 165.51 347.38 165.50 355.52 C 163.49 355.51 161.48 355.52 159.47 355.53 C 159.38 347.26 159.67 338.99 159.35 330.74 C 159.24 325.18 153.43 320.66 148.02 321.91 C 143.71 322.66 140.38 326.68 140.32 331.04 C 140.20 339.19 140.30 347.34 140.30 355.50 C 138.29 355.51 136.29 355.52 134.28 355.54 C 134.19 347.38 134.30 339.21 134.23 331.05 C 134.32 326.12 129.83 321.71 124.95 321.71 C 119.96 321.52 115.20 325.90 115.26 330.96 C 115.23 339.15 115.25 347.34 115.27 355.54 C 113.25 355.51 111.23 355.50 109.22 355.48 C 109.30 347.00 109.20 338.52 109.26 330.04 Z" />
<path fill="#0c0a0a" opacity="1.00" d=" M 175.02 315.73 C 177.00 315.73 178.97 315.73 180.95 315.74 C 181.09 329.00 180.99 342.26 181.05 355.52 C 179.05 355.52 177.05 355.53 175.05 355.55 C 174.87 342.28 175.00 329.00 175.02 315.73 Z" />
<path fill="#0c0a0a" opacity="1.00" d=" M 194.08 320.05 C 200.92 313.17 213.55 314.80 218.51 323.12 C 216.75 324.17 214.94 325.12 213.11 326.03 C 210.57 322.74 206.16 320.63 202.06 322.24 C 197.85 323.51 195.44 327.80 195.36 332.03 C 203.09 331.94 210.82 331.90 218.55 332.07 C 218.20 337.26 219.54 342.91 216.65 347.60 C 213.13 354.34 204.30 357.35 197.31 354.52 C 194.01 353.36 191.46 350.84 189.47 348.06 C 191.24 347.04 193.06 346.10 194.89 345.20 C 197.96 349.42 204.33 351.04 208.58 347.61 C 212.04 345.36 212.92 341.01 212.46 337.16 C 204.81 337.34 197.15 337.21 189.50 337.24 C 189.15 331.24 189.32 324.43 194.08 320.05 Z" />
<path fill="#0c0a0a" opacity="1.00" d=" M 81.47 317.68 C 90.47 314.55 101.27 321.35 101.72 330.98 C 101.40 337.55 103.25 345.03 98.81 350.64 C 93.02 358.85 79.24 358.86 73.62 350.47 C 69.67 345.48 70.92 338.85 70.73 332.97 C 70.36 326.20 75.07 319.71 81.47 317.68 M 83.37 323.52 C 80.04 324.56 77.41 327.54 76.88 331.00 C 76.62 334.34 76.77 337.70 76.77 341.05 C 76.54 346.09 80.97 350.74 86.01 350.75 C 90.87 351.03 95.53 346.82 95.70 341.94 C 95.77 338.61 95.76 335.27 95.70 331.93 C 95.70 326.01 88.86 321.44 83.37 323.52 Z" />
<path fill="#0c0a0a" opacity="1.00" d=" M 227.65 357.31 C 235.61 357.17 243.57 357.27 251.53 357.25 C 251.51 358.26 251.49 359.28 251.48 360.30 C 243.55 360.28 235.63 360.25 227.71 360.32 C 227.69 359.57 227.66 358.07 227.65 357.31 Z" />
</g>
</svg>
